<?xml version="1.0" encoding="UTF-8" standalone="no"?>
<svg
   xmlns:dc="http://purl.org/dc/elements/1.1/"
   xmlns:cc="http://creativecommons.org/ns#"
   xmlns:rdf="http://www.w3.org/1999/02/22-rdf-syntax-ns#"
   xmlns:svg="http://www.w3.org/2000/svg"
   xmlns="http://www.w3.org/2000/svg"
   version="1.0"
   width="335"
   height="190"
   id="svg2">
  <defs
     id="defs4">
    <marker
       refX="0"
       refY="0"
       orient="auto"
       id="Arrow1Mend"
       style="overflow:visible">
      <path
         d="M 0,0 5,-5 -12.5,0 5,5 0,0 z"
         transform="matrix(-0.4,0,0,-0.4,-4,0)"
         id="path4146"
         style="fill-rule:evenodd;stroke:#000000;stroke-width:1pt;marker-start:none" />
    </marker>
    <marker
       refX="0"
       refY="0"
       orient="auto"
       id="Arrow2Lend"
       style="overflow:visible">
      <path
         d="M 8.7185878,4.0337352 -2.2072895,0.01601326 8.7185884,-4.0017078 c -1.7454984,2.3720609 -1.7354408,5.6174519 -6e-7,8.035443 z"
         transform="matrix(-1.1,0,0,-1.1,-1.1,0)"
         id="path4158"
         style="font-size:12px;fill-rule:evenodd;stroke-width:0.625;stroke-linejoin:round" />
    </marker>
    <marker
       refX="0"
       refY="0"
       orient="auto"
       id="TriangleInL"
       style="overflow:visible">
      <path
         d="m 5.77,0 -8.65,5 0,-10 8.65,5 z"
         transform="scale(-0.8,-0.8)"
         id="path4226"
         style="fill-rule:evenodd;stroke:#000000;stroke-width:1pt;marker-start:none" />
    </marker>
    <marker
       refX="0"
       refY="0"
       orient="auto"
       id="Arrow1Mstart"
       style="overflow:visible">
      <path
         d="M 0,0 5,-5 -12.5,0 5,5 0,0 z"
         transform="matrix(0.4,0,0,0.4,4,0)"
         id="path4143"
         style="fill-rule:evenodd;stroke:#000000;stroke-width:1pt;marker-start:none" />
    </marker>
    <marker
       refX="0"
       refY="0"
       orient="auto"
       id="Arrow1Lstart"
       style="overflow:visible">
      <path
         d="M 0,0 5,-5 -12.5,0 5,5 0,0 z"
         transform="matrix(0.8,0,0,0.8,10,0)"
         id="path4137"
         style="fill-rule:evenodd;stroke:#000000;stroke-width:1pt;marker-start:none" />
    </marker>
    <marker
       refX="0"
       refY="0"
       orient="auto"
       id="Arrow2Lstart"
       style="overflow:visible">
      <path
         d="M 8.7185878,4.0337352 -2.2072895,0.01601326 8.7185884,-4.0017078 c -1.7454984,2.3720609 -1.7354408,5.6174519 -6e-7,8.035443 z"
         transform="matrix(1.1,0,0,1.1,1.1,0)"
         id="path4155"
         style="font-size:12px;fill-rule:evenodd;stroke-width:0.625;stroke-linejoin:round" />
    </marker>
  </defs>
  <g
     transform="translate(-63.57143,-409.50504)"
     id="layer1">
    <g
       id="g4352"
       style="fill:#666d6f;fill-opacity:1;stroke:none">
      <path
         d="m 82.59375,496.625 0,1 132,0 0,-1 -132,0 z"
         id="path3163"
         style="fill:#666d6f;fill-opacity:1;fill-rule:evenodd;stroke:none" />
      <path
         d="m 82.598214,497.13004 2,-2 -7,2 7,2 -2,-2 z"
         id="path4358"
         style="fill:#666d6f;fill-opacity:1;fill-rule:evenodd;stroke:none;stroke-width:0.4pt;marker-start:none" />
      <path
         d="m 214.59821,497.13004 -2,2 7,-2 -7,-2 2,2 z"
         id="path4360"
         style="fill:#666d6f;fill-opacity:1;fill-rule:evenodd;stroke:none;stroke-width:0.4pt;marker-start:none" />
    </g>
    <g
       id="g4342"
       style="fill:#666d6f;fill-opacity:1;stroke:none">
      <path
         d="m 148.78125,425.59375 0,142.375 1,0 0,-142.375 -1,0 z"
         id="path3161"
         style="fill:#666d6f;fill-opacity:1;fill-rule:evenodd;stroke:none" />
      <path
         d="m 149.28571,425.60326 2,2 -2,-7 -2,7 2,-2 z"
         id="path4348"
         style="fill:#666d6f;fill-opacity:1;fill-rule:evenodd;stroke:none;stroke-width:0.4pt;marker-start:none" />
      <path
         d="m 149.28571,567.9604 -2,-2 2,7 2,-7 -2,2 z"
         id="path4350"
         style="fill:#666d6f;fill-opacity:1;fill-rule:evenodd;stroke:none;stroke-width:0.4pt;marker-start:none" />
    </g>
    <path
       d="m 211.37442,421.90073 c -33.79032,74.80191 -33.94745,74.9168 -0.50508,148.87123"
       id="path2188"
       style="fill:none;stroke:#d20000;stroke-width:1.20000005;stroke-linecap:round;stroke-linejoin:round;stroke-miterlimit:4;stroke-opacity:1;stroke-dasharray:none" />
    <g
       transform="translate(173.1875,-0.1339335)"
       id="g4405">
      <g
         id="g4407"
         style="fill:#666d6f;fill-opacity:1;stroke:none">
        <path
           d="m 82.59375,496.625 0,1 132,0 0,-1 -132,0 z"
           id="path4409"
           style="fill:#666d6f;fill-opacity:1;fill-rule:evenodd;stroke:none" />
        <path
           d="m 82.598214,497.13004 2,-2 -7,2 7,2 -2,-2 z"
           id="path4411"
           style="fill:#666d6f;fill-opacity:1;fill-rule:evenodd;stroke:none;stroke-width:0.4pt;marker-start:none" />
        <path
           d="m 214.59821,497.13004 -2,2 7,-2 -7,-2 2,2 z"
           id="path4413"
           style="fill:#666d6f;fill-opacity:1;fill-rule:evenodd;stroke:none;stroke-width:0.4pt;marker-start:none" />
      </g>
      <g
         id="g4415">
        <g
           id="g4417"
           style="fill:#666d6f;fill-opacity:1;stroke:none">
          <path
             d="m 148.78125,425.59375 0,142.375 1,0 0,-142.375 -1,0 z"
             id="path4419"
             style="fill:#666d6f;fill-opacity:1;fill-rule:evenodd;stroke:none" />
          <path
             d="m 149.28571,425.60326 2,2 -2,-7 -2,7 2,-2 z"
             id="path4421"
             style="fill:#666d6f;fill-opacity:1;fill-rule:evenodd;stroke:none;stroke-width:0.4pt;marker-start:none" />
          <path
             d="m 149.28571,567.9604 -2,-2 2,7 2,-7 -2,2 z"
             id="path4423"
             style="fill:#666d6f;fill-opacity:1;fill-rule:evenodd;stroke:none;stroke-width:0.4pt;marker-start:none" />
        </g>
        <path
           d="m 211.37442,421.90073 c -2.02031,6.31345 -26.28834,47.18587 -40.78491,46.34074 -13.17018,-0.76779 -27.27412,-15.27856 -43.94163,-15.27856 -16.66752,0 -27.526661,18.43528 -27.400392,44.57299 0.123224,25.5073 13.061712,44.4925 27.274122,43.94163 16.2887,-0.63135 29.73595,-13.40037 44.19417,-14.89975 17.04632,-1.76777 39.14341,41.66879 40.15356,44.19418"
           id="path4425"
           style="fill:none;stroke:#d20000;stroke-width:1.20000005;stroke-linecap:round;stroke-linejoin:round;stroke-miterlimit:4;stroke-opacity:1;stroke-dasharray:none" />
      </g>
    </g>
    <text
       x="73.571434"
       y="429.33875"
       id="text5512"
       xml:space="preserve"
       style="font-size:16px;font-style:normal;font-weight:normal;fill:#000000;fill-opacity:1;stroke:none;font-family:Arial"><tspan
         x="73.571434"
         y="429.33875"
         id="tspan5514">1</tspan></text>
    <text
       x="251.15326"
       y="429.33875"
       id="text5516"
       xml:space="preserve"
       style="font-size:16px;font-style:normal;font-weight:normal;fill:#000000;fill-opacity:1;stroke:none;font-family:Arial"><tspan
         x="251.15326"
         y="429.33875"
         id="tspan5518">2</tspan></text>
    <path
       d="m 149.33287,497.28402 c 0,8.01556 -2.65872,15.27603 -6.95541,20.53262 -4.29668,5.25658 -9.22118,9.01435 -15.77303,9.01435 -13.10369,0 -18.68782,-13.01077 -18.68782,-29.04189 0,-16.03112 5.58413,-29.04188 18.68782,-29.04188 6.55185,0 11.47635,2.74761 15.77303,8.00419 4.29669,5.25658 6.95541,12.51705 6.95541,20.53261 z"
       id="path2275"
       style="fill:none;stroke:#d20000;stroke-width:1.20000005;stroke-linecap:round;stroke-linejoin:miter;stroke-miterlimit:4;stroke-opacity:1;stroke-dasharray:none;stroke-dashoffset:0" />
    <text
       x="111.45279"
       y="589.58978"
       id="text3026"
       xml:space="preserve"
       style="font-size:16px;font-style:italic;font-weight:normal;line-height:125%;letter-spacing:0px;word-spacing:0px;fill:#000000;fill-opacity:1;stroke:none;font-family:Sans;-inkscape-font-specification:Sans Italic"><tspan
         x="111.45279"
         y="589.58978"
         id="tspan3028">y² = x³ – x</tspan></text>
    <text
       x="265.26633"
       y="589.58978"
       id="text3030"
       xml:space="preserve"
       style="font-size:16px;font-style:italic;font-weight:normal;line-height:125%;letter-spacing:0px;word-spacing:0px;fill:#000000;fill-opacity:1;stroke:none;font-family:Sans;-inkscape-font-specification:Sans Italic"><tspan
         x="265.26633"
         y="589.58978"
         id="tspan3032">y² = x³ – x + 1</tspan></text>
  </g>
</svg>
